<?xml version="1.0" encoding="UTF-8"?>
<svg version="1.1" xmlns="http://www.w3.org/2000/svg" width="100" height="100">
<path d="M0 0 C9.8669233 6.8786551 15.95272168 15.87288511 18.43359375 27.6953125 C19.72432995 38.18597694 17.29685111 48.75715371 10.85546875 57.2421875 C3.83151714 65.09692909 -3.25930201 71.77374697 -14.20849609 72.88330078 C-16.33513467 72.98280727 -18.44535623 73.00893701 -20.57421875 72.9921875 C-21.32517822 72.98654785 -22.0761377 72.9809082 -22.84985352 72.97509766 C-28.44127279 72.85263569 -33.15366845 72.22658096 -38.19921875 69.6796875 C-39.44251953 69.07640625 -39.44251953 69.07640625 -40.7109375 68.4609375 C-49.69574299 63.62606459 -55.44558602 56.10413096 -59.19921875 46.6796875 C-62.05773066 36.56261599 -61.31257227 24.60375998 -56.67578125 15.2265625 C-52.31019245 7.69649928 -47.88221094 2.92290868 -40.19921875 -1.3203125 C-39.4721875 -1.73539063 -38.74515625 -2.15046875 -37.99609375 -2.578125 C-26.15698378 -8.33660366 -11.04851654 -6.6330348 0 0 Z " fill="#3E87C8" transform="translate(71.19921875,16.3203125)"/>
<path d="M0 0 C1.67619333 4.63418157 0.00276346 8.08457157 -1.6875 12.50390625 C-3.47134561 15.89639835 -5.43168511 16.78525451 -9 18 C-10.81554159 19.56102491 -10.81554159 19.56102491 -12 21 C-13.55577239 15.34264585 -12.24281523 12.20333134 -10 7 C-13.79557881 7 -15.62902617 7.50178941 -19 9 C-18.01 9 -17.02 9 -16 9 C-15.67 11.64 -15.34 14.28 -15 17 C-16.32 17.33 -17.64 17.66 -19 18 C-19 15 -19 15 -18 13 C-18.66 13 -19.32 13 -20 13 C-20.33 14.32 -20.66 15.64 -21 17 C-22.65 17.33 -24.3 17.66 -26 18 C-26 19.32 -26 20.64 -26 22 C-25.34 22.33 -24.68 22.66 -24 23 C-23.34 21.35 -22.68 19.7 -22 18 C-20.35 18.66 -18.7 19.32 -17 20 C-16.67 22.97 -16.34 25.94 -16 29 C-16.66 29 -17.32 29 -18 29 C-18 28.34 -18 27.68 -18 27 C-18.66 27 -19.32 27 -20 27 C-19.67 27.99 -19.34 28.98 -19 30 C-20.32 30 -21.64 30 -23 30 C-23 30.66 -23 31.32 -23 32 C-23.66 32 -24.32 32 -25 32 C-25.28875 32.5775 -25.5775 33.155 -25.875 33.75 C-26.91666667 35.83333333 -27.95833333 37.91666667 -29 40 C-29.33 39.67 -29.66 39.34 -30 39 C-31.66617115 38.95936168 -33.33388095 38.957279 -35 39 C-35.33 40.32 -35.66 41.64 -36 43 C-34.02 42.505 -34.02 42.505 -32 42 C-32 42.99 -32 43.98 -32 45 C-31.01 45 -30.02 45 -29 45 C-29 45.66 -29 46.32 -29 47 C-26.03 47 -23.06 47 -20 47 C-20 47.66 -20 48.32 -20 49 C-18.68 49.33 -17.36 49.66 -16 50 C-16 50.66 -16 51.32 -16 52 C-15.030625 52.28875 -14.06125 52.5775 -13.0625 52.875 C-10 54 -10 54 -9 56 C-9.28112064 58.00800456 -9.61067967 60.01014051 -10 62 C-10.66 62 -11.32 62 -12 62 C-12.2165625 63.11375 -12.2165625 63.11375 -12.4375 64.25 C-13 67 -13 67 -13.625 68.9375 C-14.14135175 71.77743461 -13.57352767 74.19608697 -13 77 C-21.73188816 75.9620341 -29.49613142 71.42153276 -35 64.5625 C-42.65196447 53.6257898 -44.33848583 43.2060089 -43 30 C-40.34449304 19.53821827 -34.63019061 10.94691627 -25.40625 5.3203125 C-16.74129694 0.5658415 -9.91706515 -0.55958361 0 0 Z " fill="#7FCB44" transform="translate(54,11)"/>
<path d="M0 0 C8.54867317 6.15504468 13.13022027 15.10233132 14.83203125 25.46484375 C15.13422006 30.02578656 14.63518321 34.48504909 14 39 C13.67 39 13.34 39 13 39 C13 36.69 13 34.38 13 32 C9.49461443 30.03698408 5.86648272 29.04097612 2 28 C2 28.66 2 29.32 2 30 C3.65 30.33 5.3 30.66 7 31 C5.75 33 5.75 33 4 35 C2.68 35 1.36 35 0 35 C0 35.66 0 36.32 0 37 C1.485 37.495 1.485 37.495 3 38 C1.625 40.5 1.625 40.5 0 43 C-0.66 43 -1.32 43 -2 43 C-1.896875 43.825 -1.79375 44.65 -1.6875 45.5 C-2.11169368 50.25096921 -4.28442298 53.17879519 -7 57 C-8.875 56.8125 -8.875 56.8125 -11 56 C-13.03605164 52.39529222 -13.22335994 49.26943748 -13.125 45.1875 C-13.10695313 44.21167969 -13.08890625 43.23585937 -13.0703125 42.23046875 C-13.04710937 41.49441406 -13.02390625 40.75835937 -13 40 C-14.258125 40.061875 -15.51625 40.12375 -16.8125 40.1875 C-20.70339488 40.16684038 -20.70339488 40.16684038 -23 38.875 C-24.48549091 36.08970454 -24.38050713 34.10747489 -24 31 C-23 29.66666667 -22 28.33333333 -21 27 C-20.74913276 23.83267579 -20.74913276 23.83267579 -21 21 C-20.34 21 -19.68 21 -19 21 C-19.350625 20.05125 -19.70125 19.1025 -20.0625 18.125 C-21 15 -21 15 -20 13 C-19.34 13 -18.68 13 -18 13 C-17.01 14.485 -17.01 14.485 -16 16 C-16 13.69 -16 11.38 -16 9 C-15.34 9 -14.68 9 -14 9 C-13.67 7.35 -13.34 5.7 -13 4 C-9.7 4 -6.4 4 -3 4 C-3 3.01 -3 2.02 -3 1 C-2.01 1.33 -1.02 1.66 0 2 C0 1.34 0 0.68 0 0 Z " fill="#82CE4C" transform="translate(75,20)"/>
<path d="M0 0 C0.33 0.66 0.66 1.32 1 2 C6.445 1.505 6.445 1.505 12 1 C12.33 2.32 12.66 3.64 13 5 C12.34 5 11.68 5 11 5 C11.33 7.64 11.66 10.28 12 13 C12.99 13.33 13.98 13.66 15 14 C14.67 15.32 14.34 16.64 14 18 C13.34 18 12.68 18 12 18 C12.103125 18.825 12.20625 19.65 12.3125 20.5 C11.88830632 25.25096921 9.71557702 28.17879519 7 32 C5.125 31.8125 5.125 31.8125 3 31 C0.96394836 27.39529222 0.77664006 24.26943748 0.875 20.1875 C0.89304687 19.21167969 0.91109375 18.23585938 0.9296875 17.23046875 C0.95289063 16.49441406 0.97609375 15.75835937 1 15 C-0.918125 15.061875 -0.918125 15.061875 -2.875 15.125 C-5.0546875 15.1953125 -5.0546875 15.1953125 -7 15 C-9 13 -9 13 -9.125 10.375 C-9.08375 9.59125 -9.0425 8.8075 -9 8 C-8.34 8 -7.68 8 -7 8 C-7 6.68 -7 5.36 -7 4 C-6.34 4 -5.68 4 -5 4 C-5 3.34 -5 2.68 -5 2 C-3.35 2 -1.7 2 0 2 C0 1.34 0 0.68 0 0 Z " fill="#94DE5B" transform="translate(61,45)"/>
<path d="M0 0 C2.2477975 2.05233685 3.0022242 3.00667261 4 6 C6.27069703 7.13395483 6.27069703 7.13395483 8.9375 8.125 C13.72966118 10.34459873 13.72966118 10.34459873 14.9296875 13.25390625 C15.3125 15.6875 15.3125 15.6875 15.42578125 18.01171875 C15.71001953 18.99591797 15.71001953 18.99591797 16 20 C16.80566406 20.309375 17.61132812 20.61875 18.44140625 20.9375 C21 22 21 22 22.0390625 24.42578125 C22.23242188 25.37839844 22.42578125 26.33101562 22.625 27.3125 C23.56051757 31.38601078 24.51096565 34.56276209 27 38 C19.94356022 37.62860843 13.78731494 33.86665028 8.94140625 28.8828125 C3.29730562 21.86713472 -1.15535305 14.49429706 -1.125 5.3125 C-1.12757812 4.52488281 -1.13015625 3.73726562 -1.1328125 2.92578125 C-1 1 -1 1 0 0 Z " fill="#347FBB" transform="translate(12,49)"/>
<path d="M0 0 C1.75570312 0.01353516 1.75570312 0.01353516 3.546875 0.02734375 C4.43890625 0.03894531 5.3309375 0.05054688 6.25 0.0625 C7.92619333 4.69668157 6.25276346 8.14707157 4.5625 12.56640625 C2.77865439 15.95889835 0.81831489 16.84775451 -2.75 18.0625 C-4.56554159 19.62352491 -4.56554159 19.62352491 -5.75 21.0625 C-7.30577239 15.40514585 -5.99281523 12.26583134 -3.75 7.0625 C-7.54557881 7.0625 -9.37902617 7.56428941 -12.75 9.0625 C-11.76 9.0625 -10.77 9.0625 -9.75 9.0625 C-9.42 11.7025 -9.09 14.3425 -8.75 17.0625 C-10.07 17.3925 -11.39 17.7225 -12.75 18.0625 C-12.75 15.0625 -12.75 15.0625 -11.75 13.0625 C-12.41 13.0625 -13.07 13.0625 -13.75 13.0625 C-14.08 14.3825 -14.41 15.7025 -14.75 17.0625 C-15.74 16.7325 -16.73 16.4025 -17.75 16.0625 C-17.42 15.0725 -17.09 14.0825 -16.75 13.0625 C-17.74 13.0625 -18.73 13.0625 -19.75 13.0625 C-19.09 11.7425 -18.43 10.4225 -17.75 9.0625 C-18.41 8.7325 -19.07 8.4025 -19.75 8.0625 C-20.74 9.0525 -21.73 10.0425 -22.75 11.0625 C-22.58203125 9.26171875 -22.58203125 9.26171875 -21.75 7.0625 C-19.38671875 5.39453125 -19.38671875 5.39453125 -16.4375 3.875 C-15.47199219 3.36582031 -14.50648437 2.85664063 -13.51171875 2.33203125 C-8.82013 0.17536033 -5.17750273 -0.05177503 0 0 Z " fill="#7FCD43" transform="translate(47.75,10.9375)"/>
<path d="M0 0 C0 0.66 0 1.32 0 2 C1.32 2.33 2.64 2.66 4 3 C4 3.66 4 4.32 4 5 C5.4540625 5.433125 5.4540625 5.433125 6.9375 5.875 C10 7 10 7 11 9 C10.71887936 11.00800456 10.38932033 13.01014051 10 15 C9.34 15 8.68 15 8 15 C7.7834375 16.11375 7.7834375 16.11375 7.5625 17.25 C7 20 7 20 6.375 21.9375 C5.85864825 24.77743461 6.42647233 27.19608697 7 30 C5.68 29.67 4.36 29.34 3 29 C3 28.34 3 27.68 3 27 C2.34 26.01 1.68 25.02 1 24 C-0.49308258 20.18434452 -1.24109514 17.09861731 -1 13 C-3.475 12.01 -3.475 12.01 -6 11 C-7.33521524 4.68807339 -7.33521524 4.68807339 -5.8125 1.5625 C-4 0 -4 0 0 0 Z " fill="#8AD651" transform="translate(34,58)"/>
<path d="M0 0 C2 0 2 0 3.625 1.25 C5 3 5 3 5 7 C6.65 7 8.3 7 10 7 C10 7.66 10 8.32 10 9 C10.66 9 11.32 9 12 9 C12 8.34 12 7.68 12 7 C13.65 7 15.3 7 17 7 C17.33 7.66 17.66 8.32 18 9 C16.68 9 15.36 9 14 9 C14 9.66 14 10.32 14 11 C14.99 11 15.98 11 17 11 C16.67 11.99 16.34 12.98 16 14 C9.375 15.125 9.375 15.125 6 14 C4.33378384 13.96125079 2.66605828 13.9549714 1 14 C1 14.66 1 15.32 1 16 C0.34 16 -0.32 16 -1 16 C-1 17.32 -1 18.64 -1 20 C-1.66 20 -2.32 20 -3 20 C-3.33 21.32 -3.66 22.64 -4 24 C-4.31922728 19.31799986 -3.74333831 17.65778441 -1 14 C-0.74913276 10.83267579 -0.74913276 10.83267579 -1 8 C-0.34 8 0.32 8 1 8 C0.649375 7.05125 0.29875 6.1025 -0.0625 5.125 C-1 2 -1 2 0 0 Z " fill="#99E174" transform="translate(55,33)"/>
<path d="M0 0 C-0.66 1.32 -1.32 2.64 -2 4 C-2.66 4 -3.32 4 -4 4 C-4.33 4.99 -4.66 5.98 -5 7 C-4.01 7 -3.02 7 -2 7 C-1.67 9.64 -1.34 12.28 -1 15 C-2.32 15.33 -3.64 15.66 -5 16 C-5 13 -5 13 -4 11 C-4.66 11 -5.32 11 -6 11 C-6.33 12.32 -6.66 13.64 -7 15 C-7.99 14.67 -8.98 14.34 -10 14 C-9.67 13.01 -9.34 12.02 -9 11 C-9.99 11 -10.98 11 -12 11 C-11.34 9.68 -10.68 8.36 -10 7 C-10.66 6.67 -11.32 6.34 -12 6 C-12.99 6.99 -13.98 7.98 -15 9 C-14.8359375 7.20703125 -14.8359375 7.20703125 -14 5 C-11.6015625 3.26171875 -11.6015625 3.26171875 -8.625 1.6875 C-7.64789063 1.15511719 -6.67078125 0.62273438 -5.6640625 0.07421875 C-3 -1 -3 -1 0 0 Z " fill="#60A497" transform="translate(40,13)"/>
<path d="M0 0 C2.475 0.99 2.475 0.99 5 2 C5.33 4.97 5.66 7.94 6 11 C5.34 11 4.68 11 4 11 C4 10.34 4 9.68 4 9 C3.34 9 2.68 9 2 9 C2.33 9.99 2.66 10.98 3 12 C1.68 12 0.36 12 -1 12 C-1 12.66 -1 13.32 -1 14 C-1.66 14 -2.32 14 -3 14 C-3.33 14.99 -3.66 15.98 -4 17 C-4.33 17 -4.66 17 -5 17 C-5.22174933 15.54364629 -5.42698698 14.08477044 -5.625 12.625 C-5.74101562 11.81289063 -5.85703125 11.00078125 -5.9765625 10.1640625 C-5.98429687 9.44992188 -5.99203125 8.73578125 -6 8 C-5.34 7.34 -4.68 6.68 -4 6 C-3.34 6.33 -2.68 6.66 -2 7 C-1.34 4.69 -0.68 2.38 0 0 Z " fill="#88D553" transform="translate(32,29)"/>
<path d="M0 0 C0.33 0.66 0.66 1.32 1 2 C1.66 2 2.32 2 3 2 C3 1.34 3 0.68 3 0 C4.65 0 6.3 0 8 0 C8.33 0.66 8.66 1.32 9 2 C7.68 2 6.36 2 5 2 C5 2.66 5 3.32 5 4 C5.99 4 6.98 4 8 4 C7.67 4.99 7.34 5.98 7 7 C0.25 8.125 0.25 8.125 -2 7 C-2 6.34 -2 5.68 -2 5 C-3.65 5 -5.3 5 -7 5 C-6.67 4.01 -6.34 3.02 -6 2 C-2.9375 0.8125 -2.9375 0.8125 0 0 Z " fill="#7BC576" transform="translate(64,40)"/>
<path d="M0 0 C2 2 2 2 2.5 4.5625 C2.665 5.366875 2.83 6.17125 3 7 C3.66 7.33 4.32 7.66 5 8 C4.67 9.32 4.34 10.64 4 12 C2.02 12 0.04 12 -2 12 C-2.33 9.69 -2.66 7.38 -3 5 C-2.34 5 -1.68 5 -1 5 C-0.67 3.35 -0.34 1.7 0 0 Z " fill="#84D156" transform="translate(62,24)"/>
<path d="M0 0 C2.80059907 0.01795256 5.56718768 0.11870624 8.359375 0.33203125 C8.359375 0.99203125 8.359375 1.65203125 8.359375 2.33203125 C7.72128906 2.45320312 7.08320312 2.574375 6.42578125 2.69921875 C5.18634766 2.95058594 5.18634766 2.95058594 3.921875 3.20703125 C3.09816406 3.36945312 2.27445313 3.531875 1.42578125 3.69921875 C0.74386719 3.90804688 0.06195313 4.116875 -0.640625 4.33203125 C-0.970625 4.99203125 -1.300625 5.65203125 -1.640625 6.33203125 C-4.640625 8.33203125 -4.640625 8.33203125 -6.828125 7.95703125 C-7.42625 7.75078125 -8.024375 7.54453125 -8.640625 7.33203125 C-8.310625 6.67203125 -7.980625 6.01203125 -7.640625 5.33203125 C-6.980625 5.33203125 -6.320625 5.33203125 -5.640625 5.33203125 C-5.1765625 4.09453125 -5.1765625 4.09453125 -4.703125 2.83203125 C-2.640625 0.33203125 -2.640625 0.33203125 0 0 Z " fill="#6ABA50" transform="translate(43.640625,10.66796875)"/>
<path d="M0 0 C0.66 0 1.32 0 2 0 C1.79375 0.61875 1.5875 1.2375 1.375 1.875 C1.25125 2.57625 1.1275 3.2775 1 4 C1.66 4.66 2.32 5.32 3 6 C1.35 5.67 -0.3 5.34 -2 5 C-2.66 6.98 -3.32 8.96 -4 11 C-5.32 10.01 -6.64 9.02 -8 8 C-7.375 6.125 -7.375 6.125 -6 4 C-2.875 2.75 -2.875 2.75 0 2 C0 1.34 0 0.68 0 0 Z " fill="#3F8AB5" transform="translate(34,24)"/>
<path d="M0 0 C0.33 0.99 0.66 1.98 1 3 C1.99 3 2.98 3 4 3 C4 3.66 4 4.32 4 5 C5.65 5 7.3 5 9 5 C7.84826645 7.46800047 6.95216435 9.04783565 5 11 C5 9.68 5 8.36 5 7 C3.948125 6.5978125 3.948125 6.5978125 2.875 6.1875 C-0.1649824 4.9318551 -3.0727774 3.49764877 -6 2 C-4 1.33333333 -2 0.66666667 0 0 Z " fill="#7AC851" transform="translate(21,53)"/>
<path d="M0 0 C0.33 0.66 0.66 1.32 1 2 C1.66 2 2.32 2 3 2 C2.67 4.31 2.34 6.62 2 9 C0.68 9 -0.64 9 -2 9 C-2.33 7.35 -2.66 5.7 -3 4 C-3.99 4 -4.98 4 -6 4 C-5.67 3.34 -5.34 2.68 -5 2 C-3.67696283 1.6278958 -2.34262065 1.29369827 -1 1 C-0.67 0.67 -0.34 0.34 0 0 Z " fill="#3986B2" transform="translate(41,16)"/>
<path d="M0 0 C1.65 0 3.3 0 5 0 C5.33 0.99 5.66 1.98 6 3 C8.50447516 4.21869929 8.50447516 4.21869929 11 5 C8 6 8 6 5 6 C4.01 6.495 4.01 6.495 3 7 C2.67 6.34 2.34 5.68 2 5 C1.01 5 0.02 5 -1 5 C-0.67 3.35 -0.34 1.7 0 0 Z " fill="#4994AE" transform="translate(19,49)"/>
<path d="M0 0 C0.99 0 1.98 0 3 0 C3.33 2.64 3.66 5.28 4 8 C2.68 8.33 1.36 8.66 0 9 C0 6 0 6 1 4 C0.34 4 -0.32 4 -1 4 C-0.67 2.68 -0.34 1.36 0 0 Z " fill="#79C74E" transform="translate(35,20)"/>
<path d="M0 0 C0.99 0.66 1.98 1.32 3 2 C-5.261959 7.55580866 -5.261959 7.55580866 -10 8 C-9.67 7.01 -9.34 6.02 -9 5 C-7.35 4.67 -5.7 4.34 -4 4 C-4 3.34 -4 2.68 -4 2 C-2.68 2 -1.36 2 0 2 C0 1.34 0 0.68 0 0 Z " fill="#5794CA" transform="translate(71,80)"/>
<path d="M0 0 C0.33 1.32 0.66 2.64 1 4 C1.66 4 2.32 4 3 4 C3.66 2.68 4.32 1.36 5 0 C5 1.65 5 3.3 5 5 C2.36 5.99 -0.28 6.98 -3 8 C-2.25 2.25 -2.25 2.25 0 0 Z " fill="#3681BA" transform="translate(73,68)"/>
<path d="M0 0 C0.33 0.99 0.66 1.98 1 3 C1.99 3 2.98 3 4 3 C4.66 5.64 5.32 8.28 6 11 C4.68 10.67 3.36 10.34 2 10 C2 9.34 2 8.68 2 8 C1.34 7.01 0.68 6.02 0 5 C-0.125 2.3125 -0.125 2.3125 0 0 Z " fill="#7FC75D" transform="translate(35,77)"/>
<path d="M0 0 C0.66 0 1.32 0 2 0 C1.125 7.75 1.125 7.75 0 10 C-0.99 9.67 -1.98 9.34 -3 9 C-2.5020163 5.26512223 -2.12508244 3.18762365 0 0 Z " fill="#5FAC70" transform="translate(33,18)"/>
<path d="M0 0 C0.66 0 1.32 0 2 0 C3.125 2.25 3.125 2.25 4 5 C3.125 7.3125 3.125 7.3125 2 9 C1.34 9 0.68 9 0 9 C-0.33 9.99 -0.66 10.98 -1 12 C-1 10.68 -1 9.36 -1 8 C-0.34 8 0.32 8 1 8 C0.649375 7.05125 0.29875 6.1025 -0.0625 5.125 C-1 2 -1 2 0 0 Z " fill="#81CA84" transform="translate(55,33)"/>
<path d="M0 0 C1.65 0 3.3 0 5 0 C4.125 4.75 4.125 4.75 3 7 C2.34 7 1.68 7 1 7 C0.67 4.69 0.34 2.38 0 0 Z " fill="#438EA1" transform="translate(60,13)"/>
<path d="M0 0 C-0.33 0.99 -0.66 1.98 -1 3 C-7.75 4.125 -7.75 4.125 -10 3 C-10 2.34 -10 1.68 -10 1 C-6.78548731 -0.60725635 -3.56387464 -0.05748185 0 0 Z " fill="#5299BD" transform="translate(72,44)"/>
<path d="M0 0 C0.99 0.99 1.98 1.98 3 3 C3 3.99 3 4.98 3 6 C2.34 6 1.68 6 1 6 C1.33 7.98 1.66 9.96 2 12 C1.01 12.495 1.01 12.495 0 13 C0 8.71 0 4.42 0 0 Z " fill="#5297CE" transform="translate(53,35)"/>
<path d="M0 0 C3.63 0 7.26 0 11 0 C11 0.66 11 1.32 11 2 C7.75 2.6875 7.75 2.6875 4 3 C2.68 2.01 1.36 1.02 0 0 Z " fill="#75C152" transform="translate(41,11)"/>
<path d="M0 0 C0.33 0.66 0.66 1.32 1 2 C2.65 2 4.3 2 6 2 C4.84826645 4.46800047 3.95216435 6.04783565 2 8 C2 6.68 2 5.36 2 4 C1.34 4 0.68 4 0 4 C0 2.68 0 1.36 0 0 Z " fill="#73C06B" transform="translate(24,56)"/>
<path d="M0 0 C1.125 1.6875 1.125 1.6875 2 4 C1.125 6.75 1.125 6.75 0 9 C-0.66 8.34 -1.32 7.68 -2 7 C-1.6730244 4.38419521 -1.17960932 2.35921863 0 0 Z " fill="#84D156" transform="translate(43,23)"/>
<path d="M0 0 C2 2 2 2 2 5 C2.99 5 3.98 5 5 5 C5.33 6.32 5.66 7.64 6 9 C4.125 8.8125 4.125 8.8125 2 8 C0.47835901 5.10888212 0 3.28176588 0 0 Z " fill="#7BC85F" transform="translate(62,68)"/>
<path d="M0 0 C0.33 1.32 0.66 2.64 1 4 C2.98 4.495 2.98 4.495 5 5 C4.34 6.32 3.68 7.64 3 9 C2.34 9 1.68 9 1 9 C0.67 6.03 0.34 3.06 0 0 Z " fill="#55A18A" transform="translate(73,63)"/>
<path d="M0 0 C0.99 0 1.98 0 3 0 C3.33 2.97 3.66 5.94 4 9 C3.34 9 2.68 9 2 9 C2 8.34 2 7.68 2 7 C1.01 7.33 0.02 7.66 -1 8 C-1 7.34 -1 6.68 -1 6 C-0.01 6 0.98 6 2 6 C2 4.35 2 2.7 2 1 C1.34 0.67 0.68 0.34 0 0 Z " fill="#75BF76" transform="translate(34,31)"/>
<path d="M0 0 C0.185625 0.9590625 0.185625 0.9590625 0.375 1.9375 C0.684375 2.9584375 0.684375 2.9584375 1 4 C1.66 4.33 2.32 4.66 3 5 C2.01 5.99 1.02 6.98 0 8 C-0.99 7.67 -1.98 7.34 -3 7 C-2.34 7 -1.68 7 -1 7 C-1.020625 6.030625 -1.04125 5.06125 -1.0625 4.0625 C-1 1 -1 1 0 0 Z " fill="#4B93B2" transform="translate(64,27)"/>
<path d="M0 0 C3.08089673 2.77280706 4.68775452 5.06326356 6 9 C5.01 9.495 5.01 9.495 4 10 C4 9.34 4 8.68 4 8 C3.34 8 2.68 8 2 8 C1.34 5.36 0.68 2.72 0 0 Z " fill="#87CC59" transform="translate(80,25)"/>
<path d="M0 0 C2.4375 0.75 2.4375 0.75 5 2 C5.8125 4.125 5.8125 4.125 6 6 C4.68 6 3.36 6 2 6 C1.34 4.02 0.68 2.04 0 0 Z " fill="#64A5A1" transform="translate(69,16)"/>
<path d="M0 0 C0.33 1.32 0.66 2.64 1 4 C2.32 4.33 3.64 4.66 5 5 C3.02 5.33 1.04 5.66 -1 6 C-1 2 -1 2 0 0 Z " fill="#98E263" transform="translate(59,36)"/>
<path d="M0 0 C1.65 0 3.3 0 5 0 C4.21654285 1.17219543 3.42297164 2.33763668 2.625 3.5 C2.18414062 4.1496875 1.74328125 4.799375 1.2890625 5.46875 C0.86367188 5.9740625 0.43828125 6.479375 0 7 C-0.66 7 -1.32 7 -2 7 C-1.67 6.21625 -1.34 5.4325 -1 4.625 C0.11866511 2.15667503 0.11866511 2.15667503 0 0 Z " fill="#3683A6" transform="translate(30,17)"/>
<path d="M0 0 C-0.99 1.485 -0.99 1.485 -2 3 C-4.625 3.1875 -4.625 3.1875 -7 3 C-6.67 2.01 -6.34 1.02 -6 0 C-3.42525708 -0.99667468 -2.51072708 -1.25536354 0 0 Z " fill="#6DB3A2" transform="translate(64,42)"/>
</svg>
